<svg width="131" height="64" viewBox="0 0 131 64" fill="none" xmlns="http://www.w3.org/2000/svg">
<path d="M30.5063 44.2179H29.091L28.8754 42.5248H22.2706L22.055 44.2179H20.6396V40.7499H21.7315C21.8033 40.6498 21.9157 40.4313 22.0684 40.0946C22.2212 39.7578 22.374 39.2754 22.5267 38.6473C22.6795 38.0192 22.8098 37.241 22.9176 36.3126C23.0344 35.3751 23.0839 34.26 23.0659 32.9675H29.2124V40.7499H30.5063V44.2179ZM27.2174 40.7499V34.7424H24.926C24.8721 36.308 24.7328 37.5914 24.5082 38.5927C24.2925 39.5939 24.0723 40.313 23.8477 40.7499H27.2174ZM31.6383 32.9675H37.7174V34.7424H33.6332V36.8178H37.34V38.5927H33.6332V40.7499H37.7848V42.5248H31.6383V32.9675ZM41.7936 38.4835H41.2679V42.5248H39.273V32.9675H41.2679V37.1727L41.7396 36.9679L44.5702 32.9675H46.8482L43.8559 36.9679L43.0741 37.4868L43.8828 38.0329L47.3065 42.5248H44.8398L41.7936 38.4835ZM47.571 37.7462C47.571 36.9634 47.6699 36.2625 47.8676 35.6436C48.0653 35.0246 48.3483 34.5058 48.7168 34.0871C49.0942 33.6593 49.5525 33.3362 50.0916 33.1177C50.6308 32.8901 51.2418 32.7764 51.9248 32.7764C52.6526 32.7764 53.2862 32.8992 53.8253 33.145C54.3735 33.3817 54.8273 33.7184 55.1867 34.1554C55.5551 34.5923 55.8292 35.1156 56.0089 35.7255C56.1977 36.3353 56.292 37.0089 56.292 37.7462C56.292 38.529 56.1887 39.2298 55.982 39.8488C55.7843 40.4677 55.4967 40.9911 55.1193 41.4189C54.7419 41.8376 54.2836 42.1608 53.7445 42.3883C53.2053 42.6068 52.5987 42.716 51.9248 42.716C51.1969 42.716 50.5589 42.5977 50.0107 42.361C49.4716 42.1152 49.0178 41.7739 48.6494 41.337C48.2899 40.9001 48.0203 40.3767 47.8406 39.7669C47.6609 39.157 47.571 38.4835 47.571 37.7462ZM49.6872 37.7462C49.6872 38.2195 49.7322 38.6519 49.822 39.0432C49.9119 39.4346 50.0467 39.7714 50.2264 40.0536C50.4061 40.3358 50.6353 40.5542 50.9138 40.709C51.2014 40.8637 51.5384 40.9411 51.9248 40.9411C52.6347 40.9411 53.1873 40.6953 53.5827 40.2038C53.9781 39.7123 54.1758 38.8931 54.1758 37.7462C54.1758 37.2911 54.1353 36.8678 54.0545 36.4764C53.9736 36.085 53.8388 35.7482 53.6501 35.4661C53.4704 35.1748 53.2367 34.9518 52.9492 34.7971C52.6706 34.6332 52.3291 34.5513 51.9248 34.5513C51.2239 34.5513 50.6757 34.8062 50.2803 35.3159C49.8849 35.8256 49.6872 36.6357 49.6872 37.7462ZM57.7014 33.0631C58.1058 32.9903 58.5551 32.9357 59.0493 32.8992C59.5436 32.8537 60.0378 32.831 60.532 32.831C61.0352 32.831 61.543 32.8719 62.0552 32.9539C62.5674 33.0267 63.0257 33.1814 63.43 33.4181C63.8434 33.6456 64.1804 33.9688 64.441 34.3875C64.7016 34.7971 64.8319 35.3432 64.8319 36.0259C64.8319 36.6266 64.7195 37.1409 64.4949 37.5687C64.2702 37.9874 63.9692 38.3287 63.5918 38.5927C63.2234 38.8567 62.801 39.0524 62.3247 39.1798C61.8485 39.2981 61.3587 39.3573 60.8555 39.3573C60.8106 39.3573 60.7342 39.3573 60.6264 39.3573C60.5185 39.3573 60.4017 39.3573 60.2759 39.3573C60.1591 39.3482 60.0468 39.3391 59.9389 39.33C59.8311 39.3209 59.7502 39.3118 59.6963 39.3027V42.5248H57.7014V33.0631ZM60.6668 34.6059C60.4781 34.6059 60.2939 34.6105 60.1142 34.6196C59.9434 34.6287 59.8042 34.6469 59.6963 34.6742V37.5141C59.7323 37.5232 59.7907 37.5323 59.8715 37.5414C59.9524 37.5505 60.0378 37.5596 60.1277 37.5687C60.2175 37.5687 60.2984 37.5732 60.3703 37.5823C60.4512 37.5823 60.5141 37.5823 60.559 37.5823C60.8196 37.5823 61.0802 37.5641 61.3408 37.5277C61.6014 37.4913 61.8305 37.4139 62.0282 37.2956C62.2349 37.1773 62.4011 37.018 62.5269 36.8178C62.6527 36.6084 62.7156 36.3308 62.7156 35.9849C62.7156 35.6936 62.6572 35.4615 62.5404 35.2886C62.4236 35.1065 62.2663 34.9655 62.0686 34.8653C61.8799 34.7652 61.6598 34.6969 61.4082 34.6605C61.1655 34.6241 60.9184 34.6059 60.6668 34.6059ZM69.9962 40.4905H66.8151L66.0468 42.5248H64.0519L67.7452 32.8992H69.2144L72.9211 42.5248H70.8049L69.9962 40.4905ZM67.3678 38.8931H69.5244L68.7965 36.8997L68.473 35.3842H68.4056L68.0821 36.9133L67.3678 38.8931ZM79.9068 34.7424H76.9145V42.5248H74.9196V34.7424H71.9272V32.9675H79.9068V34.7424ZM86.9457 37.2547L87.0536 36.0395H86.9862L86.2987 37.2683L82.4302 42.5248H80.9475V32.9675H82.9424V38.1148L82.8076 39.3846H82.8885L83.6164 38.1148L87.4445 32.9675H88.9406V42.5248H86.9457V37.2547ZM97.5896 35.2203C97.5896 35.457 97.5536 35.6936 97.4817 35.9303C97.4188 36.1578 97.3155 36.3717 97.1717 36.572C97.028 36.7722 96.8392 36.9452 96.6056 37.0908C96.372 37.2365 96.0889 37.3411 95.7564 37.4048V37.4868C96.053 37.5141 96.3315 37.5823 96.5921 37.6916C96.8527 37.8008 97.0774 37.9555 97.2661 38.1558C97.4638 38.3469 97.6165 38.5836 97.7244 38.8658C97.8412 39.1388 97.8996 39.462 97.8996 39.8351C97.8996 40.3358 97.7828 40.7636 97.5491 41.1186C97.3245 41.4735 97.0279 41.7648 96.6595 41.9924C96.2911 42.2199 95.8687 42.3883 95.3925 42.4975C94.9162 42.6068 94.431 42.6614 93.9367 42.6614C93.775 42.6614 93.5593 42.6614 93.2897 42.6614C93.0292 42.6614 92.7461 42.6523 92.4406 42.6341C92.144 42.625 91.8385 42.6068 91.524 42.5795C91.2185 42.5522 90.9399 42.5112 90.6883 42.4566V33.0358C90.877 33.0085 91.0882 32.9812 91.3218 32.9539C91.5644 32.9266 91.8205 32.9038 92.0901 32.8856C92.3687 32.8674 92.6517 32.8537 92.9393 32.8446C93.2268 32.8355 93.5144 32.831 93.802 32.831C94.2692 32.831 94.7275 32.8674 95.1768 32.9402C95.6261 33.0039 96.0305 33.1268 96.3899 33.3088C96.7494 33.4818 97.0369 33.723 97.2526 34.0325C97.4773 34.3419 97.5896 34.7379 97.5896 35.2203ZM93.9098 41.023C94.1614 41.023 94.3995 41.0002 94.6242 40.9547C94.8578 40.9092 95.06 40.8364 95.2307 40.7363C95.4105 40.627 95.5497 40.4951 95.6486 40.3403C95.7564 40.1765 95.8103 39.9762 95.8103 39.7396C95.8103 39.4483 95.7474 39.2162 95.6216 39.0432C95.4958 38.8703 95.3296 38.7429 95.1229 38.661C94.9252 38.5699 94.7006 38.5153 94.4489 38.4971C94.2063 38.4698 93.9592 38.4562 93.7076 38.4562H92.6023V40.9411C92.6562 40.9593 92.7326 40.9729 92.8315 40.982C92.9393 40.9911 93.0561 41.0002 93.1819 41.0093C93.3077 41.0093 93.4335 41.0139 93.5593 41.023C93.6941 41.023 93.8109 41.023 93.9098 41.023ZM93.2763 36.9543C93.4111 36.9543 93.5683 36.9543 93.748 36.9543C93.9367 36.9452 94.094 36.9315 94.2198 36.9133C94.5972 36.795 94.9162 36.6357 95.1768 36.4355C95.4374 36.2261 95.5677 35.9439 95.5677 35.589C95.5677 35.3523 95.5183 35.1611 95.4194 35.0155C95.3206 34.8699 95.1858 34.7561 95.0151 34.6742C94.8533 34.5923 94.6691 34.5376 94.4624 34.5103C94.2557 34.483 94.0446 34.4694 93.8289 34.4694C93.5683 34.4694 93.3302 34.4739 93.1145 34.483C92.8989 34.4921 92.7281 34.5058 92.6023 34.524V36.9543H93.2763ZM105.092 38.579H101.318V42.5248H99.3233V32.9675H101.318V36.8041H105.092V32.9675H107.087V42.5248H105.092V38.579ZM116.753 32.9675H118.748V42.5248H116.753V32.9675ZM108.84 32.9675H110.835V36.3672C110.934 36.349 111.096 36.3262 111.321 36.2989C111.554 36.2716 111.788 36.258 112.021 36.258C112.507 36.258 112.97 36.308 113.41 36.4082C113.859 36.4992 114.25 36.663 114.583 36.8997C114.924 37.1272 115.194 37.4413 115.391 37.8418C115.589 38.2423 115.688 38.7429 115.688 39.3436C115.688 40.445 115.337 41.2733 114.636 41.8285C113.936 42.3838 112.911 42.6614 111.563 42.6614C111.428 42.6614 111.253 42.6568 111.038 42.6477C110.822 42.6477 110.588 42.6386 110.337 42.6204C110.085 42.6022 109.829 42.5795 109.568 42.5522C109.308 42.5248 109.065 42.4839 108.84 42.4293V32.9675ZM111.698 40.8864C112.246 40.8864 112.695 40.7727 113.046 40.5451C113.396 40.3176 113.572 39.9398 113.572 39.4119C113.572 39.1297 113.522 38.9022 113.423 38.7292C113.324 38.5472 113.19 38.4061 113.019 38.306C112.857 38.1967 112.659 38.1239 112.426 38.0875C112.201 38.0511 111.963 38.0329 111.711 38.0329C111.649 38.0329 111.572 38.0375 111.482 38.0466C111.401 38.0557 111.316 38.0648 111.226 38.0739C111.145 38.083 111.069 38.0966 110.997 38.1148C110.925 38.1239 110.871 38.133 110.835 38.1421V40.8182C111.06 40.8637 111.348 40.8864 111.698 40.8864ZM120.503 32.9675H126.582V34.7424H122.498V36.8178H126.205V38.5927H122.498V40.7499H126.649V42.5248H120.503V32.9675ZM24.0364 56.119H23.5107V60.1604H21.5158V50.6031H23.5107V54.8083L23.9825 54.6035L26.8131 50.6031H29.091L26.0987 54.6035L25.3169 55.1223L26.1256 55.6685L29.5493 60.1604H27.0827L24.0364 56.119ZM33.4295 54.7673L33.726 55.9825H33.8204L34.0495 54.7127L35.5861 50.6031H37.6754L34.9391 57.2522C34.7325 57.762 34.5258 58.2034 34.3191 58.5766C34.1124 58.9498 33.8923 59.2638 33.6586 59.5187C33.425 59.7645 33.1644 59.9511 32.8768 60.0785C32.5893 60.1968 32.2568 60.256 31.8794 60.256C31.5559 60.256 31.2998 60.2378 31.1111 60.2014C30.9224 60.165 30.7112 60.0739 30.4776 59.9283L30.9763 58.3036C31.147 58.3855 31.2998 58.4355 31.4346 58.4537C31.5784 58.4719 31.7266 58.481 31.8794 58.481C32.3467 58.481 32.6702 58.1625 32.8499 57.5253L29.0082 50.6031H31.3537L33.4295 54.7673ZM43.2292 52.378H41.0591C41.0141 53.2427 40.9647 54.0255 40.9108 54.7264C40.8659 55.4181 40.7985 56.0416 40.7086 56.5969C40.6277 57.1521 40.5154 57.6482 40.3716 58.0851C40.2279 58.5129 40.0481 58.8906 39.8325 59.2183C39.6887 59.4277 39.527 59.6006 39.3472 59.7371C39.1765 59.8737 38.9968 59.9829 38.8081 60.0648C38.6194 60.1376 38.4351 60.1877 38.2554 60.215C38.0757 60.2514 37.9095 60.2696 37.7567 60.2696C37.5231 60.2696 37.3388 60.2514 37.2041 60.215C37.0783 60.1786 36.9388 60.124 36.7861 60.0512L37.0019 58.3582C37.1007 58.3946 37.2175 58.4128 37.3523 58.4128C37.5051 58.4128 37.6579 58.3764 37.8106 58.3036C37.9634 58.2307 38.0982 58.1124 38.215 57.9486C38.3588 57.7483 38.4846 57.4616 38.5924 57.0884C38.7092 56.7152 38.8034 56.2328 38.8755 55.6412C38.9563 55.0404 39.0192 54.3259 39.0642 53.4976C39.1181 52.6693 39.154 51.7044 39.172 50.6031H45.2241V60.1604H43.2292V52.378ZM46.9735 50.6031H48.9684V54.0028C49.0133 53.9937 49.0897 53.9845 49.1975 53.9754C49.3053 53.9572 49.4222 53.9436 49.548 53.9345C49.6828 53.9254 49.8175 53.9163 49.9523 53.9072C50.0961 53.8981 50.2219 53.8935 50.3298 53.8935C50.815 53.8935 51.2823 53.939 51.7316 54.0301C52.1899 54.1211 52.5897 54.2849 52.9312 54.5216C53.2817 54.7582 53.5602 55.0768 53.7669 55.4773C53.9826 55.8778 54.0904 56.383 54.0904 56.9928C54.0904 58.0851 53.7175 58.9088 52.9717 59.4641C52.2348 60.0193 51.1969 60.2969 49.858 60.2969C49.7232 60.2969 49.539 60.2924 49.3053 60.2833C49.0807 60.2833 48.8336 60.2742 48.564 60.256C48.2944 60.2378 48.0203 60.215 47.7418 60.1877C47.4632 60.1604 47.2071 60.1194 46.9735 60.0648V50.6031ZM49.9523 58.522C50.2219 58.522 50.478 58.4992 50.7206 58.4537C50.9723 58.4082 51.1879 58.3309 51.3676 58.2216C51.5563 58.1033 51.7046 57.9531 51.8125 57.7711C51.9203 57.5799 51.9742 57.3433 51.9742 57.0611C51.9742 56.7607 51.9158 56.5195 51.799 56.3375C51.6911 56.1554 51.5429 56.0143 51.3542 55.9142C51.1655 55.8141 50.9498 55.7504 50.7072 55.7231C50.4645 55.6867 50.2129 55.6685 49.9523 55.6685C49.8804 55.6685 49.7951 55.673 49.6962 55.6821C49.6064 55.6912 49.512 55.7003 49.4132 55.7094C49.3143 55.7185 49.2245 55.7322 49.1436 55.7504C49.0627 55.7595 49.0043 55.7686 48.9684 55.7777V58.4537C49.0762 58.4719 49.2155 58.4901 49.3862 58.5084C49.5659 58.5175 49.7546 58.522 49.9523 58.522ZM60.9518 52.378H57.9595V60.1604H55.9646V52.378H52.9722V50.6031H60.9518V52.378ZM65.6398 54.7673L65.9363 55.9825H66.0307L66.2598 54.7127L67.7964 50.6031H69.8857L67.1494 57.2522C66.9427 57.762 66.7361 58.2034 66.5294 58.5766C66.3227 58.9498 66.1025 59.2638 65.8689 59.5187C65.6353 59.7645 65.3747 59.9511 65.0871 60.0785C64.7996 60.1968 64.4671 60.256 64.0897 60.256C63.7662 60.256 63.5101 60.2378 63.3214 60.2014C63.1326 60.165 62.9215 60.0739 62.6878 59.9283L63.1866 58.3036C63.3573 58.3855 63.5101 58.4355 63.6449 58.4537C63.7886 58.4719 63.9369 58.481 64.0897 58.481C64.5569 58.481 64.8804 58.1625 65.0602 57.5253L61.2186 50.6031H63.564L65.6398 54.7673ZM70.5355 50.6986C70.9399 50.6258 71.3892 50.5712 71.8834 50.5348C72.3776 50.4893 72.8719 50.4665 73.3661 50.4665C73.8693 50.4665 74.377 50.5075 74.8892 50.5894C75.4014 50.6622 75.8597 50.817 76.2641 51.0536C76.6775 51.2812 77.0144 51.6043 77.275 52.023C77.5356 52.4326 77.6659 52.9787 77.6659 53.6614C77.6659 54.2622 77.5536 54.7764 77.329 55.2042C77.1043 55.6229 76.8033 55.9643 76.4258 56.2282C76.0574 56.4922 75.6351 56.6879 75.1588 56.8153C74.6826 56.9337 74.1928 56.9928 73.6896 56.9928C73.6447 56.9928 73.5683 56.9928 73.4604 56.9928C73.3526 56.9928 73.2358 56.9928 73.11 56.9928C72.9932 56.9837 72.8808 56.9746 72.773 56.9655C72.6652 56.9564 72.5843 56.9473 72.5304 56.9382V60.1604H70.5355V50.6986ZM73.5009 52.2415C73.3122 52.2415 73.128 52.246 72.9482 52.2551C72.7775 52.2642 72.6382 52.2824 72.5304 52.3097V55.1496C72.5663 55.1587 72.6247 55.1678 72.7056 55.1769C72.7865 55.186 72.8719 55.1951 72.9617 55.2042C73.0516 55.2042 73.1325 55.2088 73.2043 55.2179C73.2852 55.2179 73.3481 55.2179 73.393 55.2179C73.6536 55.2179 73.9142 55.1997 74.1748 55.1633C74.4354 55.1269 74.6646 55.0495 74.8623 54.9312C75.069 54.8128 75.2352 54.6536 75.361 54.4533C75.4868 54.244 75.5497 53.9663 75.5497 53.6205C75.5497 53.3292 75.4913 53.0971 75.3745 52.9241C75.2577 52.7421 75.1004 52.601 74.9027 52.5009C74.714 52.4008 74.4938 52.3325 74.2422 52.2961C73.9996 52.2597 73.7525 52.2415 73.5009 52.2415ZM86.8063 50.6031H88.8012V60.1604H86.8063V50.6031ZM78.8941 50.6031H80.889V54.0028C80.9878 53.9845 81.1496 53.9618 81.3742 53.9345C81.6079 53.9072 81.8415 53.8935 82.0751 53.8935C82.5604 53.8935 83.0232 53.9436 83.4635 54.0437C83.9128 54.1347 84.3037 54.2986 84.6362 54.5352C84.9776 54.7628 85.2472 55.0768 85.4449 55.4773C85.6426 55.8778 85.7414 56.3784 85.7414 56.9792C85.7414 58.0805 85.391 58.9088 84.6901 59.4641C83.9892 60.0193 82.9648 60.2969 81.6168 60.2969C81.4821 60.2969 81.3068 60.2924 81.0912 60.2833C80.8755 60.2833 80.6419 60.2742 80.3902 60.256C80.1386 60.2378 79.8825 60.215 79.6219 60.1877C79.3613 60.1604 79.1187 60.1194 78.8941 60.0648V50.6031ZM81.7516 58.522C82.2998 58.522 82.7491 58.4082 83.0995 58.1807C83.45 57.9531 83.6252 57.5754 83.6252 57.0474C83.6252 56.7653 83.5758 56.5377 83.477 56.3648C83.3781 56.1827 83.2433 56.0416 83.0726 55.9415C82.9108 55.8323 82.7131 55.7595 82.4795 55.7231C82.2549 55.6867 82.0167 55.6685 81.7651 55.6685C81.7022 55.6685 81.6258 55.673 81.536 55.6821C81.4551 55.6912 81.3697 55.7003 81.2799 55.7094C81.199 55.7185 81.1226 55.7322 81.0507 55.7504C80.9788 55.7595 80.9249 55.7686 80.889 55.7777V58.4537C81.1136 58.4992 81.4012 58.522 81.7516 58.522Z" fill="white"/>
<path d="M21.287 25.5926V25.0141H21.4184C21.4521 25.0141 21.4925 25.0141 21.5397 25.0141C21.5903 25.0141 21.6408 25.0141 21.6913 25.0141C21.7453 25.0107 21.7958 25.0072 21.843 25.0038C21.8935 24.997 21.934 24.9902 21.9643 24.9833C22.0923 24.9595 22.1985 24.9168 22.2827 24.8553C22.3704 24.7905 22.4142 24.6983 22.4142 24.5789C22.4142 24.4253 22.3586 24.3212 22.2474 24.2665C22.1395 24.2119 21.9946 24.1846 21.8127 24.1846C21.7318 24.1846 21.6509 24.1915 21.57 24.2051C21.4925 24.2153 21.4184 24.2307 21.3476 24.2512C21.2802 24.2717 21.2179 24.2939 21.1606 24.3177C21.1033 24.3382 21.0561 24.3587 21.0191 24.3792L20.8321 23.7341C20.8691 23.717 20.923 23.6965 20.9938 23.6726C21.0679 23.6453 21.1539 23.6214 21.2516 23.6009C21.3493 23.5771 21.4555 23.5583 21.57 23.5446C21.6846 23.5276 21.8009 23.519 21.9188 23.519C22.0806 23.519 22.2372 23.5327 22.3889 23.56C22.5439 23.5873 22.6821 23.6351 22.8034 23.7033C22.9247 23.7716 23.0224 23.8638 23.0965 23.9798C23.1707 24.0959 23.2077 24.2427 23.2077 24.4201C23.2077 24.5942 23.1572 24.7564 23.0561 24.9065C22.955 25.0567 22.7933 25.166 22.5709 25.2342V25.2649C22.8067 25.3025 22.9904 25.3964 23.1218 25.5465C23.2566 25.6967 23.324 25.8947 23.324 26.1405C23.324 26.3316 23.2819 26.4972 23.1976 26.6371C23.1134 26.7736 23.0022 26.8863 22.864 26.975C22.7292 27.0638 22.5725 27.1286 22.3939 27.1696C22.2187 27.214 22.0384 27.2361 21.8531 27.2361C21.7318 27.2361 21.6138 27.2293 21.4993 27.2157C21.3881 27.2054 21.2836 27.1918 21.1859 27.1747C21.0882 27.1576 21.0005 27.1372 20.923 27.1133C20.8455 27.0894 20.7815 27.0638 20.731 27.0365L20.923 26.3811C21.0073 26.4187 21.1286 26.4596 21.287 26.504C21.4487 26.5484 21.6408 26.5705 21.8632 26.5705C21.9407 26.5705 22.0182 26.562 22.0957 26.5449C22.1766 26.5279 22.249 26.5006 22.3131 26.463C22.3771 26.4221 22.4293 26.3709 22.4698 26.3094C22.5102 26.248 22.5304 26.1712 22.5304 26.079C22.5304 26.0005 22.5153 25.9323 22.4849 25.8742C22.458 25.8162 22.4091 25.7684 22.3383 25.7309C22.2709 25.6899 22.1783 25.6592 22.0603 25.6387C21.9458 25.6148 21.8025 25.6012 21.6307 25.5977C21.5869 25.5977 21.5532 25.5977 21.5296 25.5977C21.5094 25.5943 21.4723 25.5926 21.4184 25.5926H21.287ZM25.7518 26.4016H24.5589L24.2708 27.1645H23.5227L24.9077 23.5549H25.4586L26.8486 27.1645H26.0551L25.7518 26.4016ZM24.7661 25.8025H25.5749L25.3019 25.055L25.1806 24.4867H25.1553L25.034 25.0601L24.7661 25.8025ZM26.884 25.3725C26.884 25.0789 26.9211 24.8161 26.9952 24.584C27.0694 24.3519 27.1755 24.1573 27.3137 24.0003C27.4552 23.8399 27.6271 23.7187 27.8292 23.6368C28.0314 23.5515 28.2606 23.5088 28.5167 23.5088C28.7896 23.5088 29.0272 23.5549 29.2294 23.647C29.4349 23.7358 29.6051 23.8621 29.7399 24.0259C29.8781 24.1897 29.9809 24.386 30.0482 24.6147C30.119 24.8434 30.1544 25.096 30.1544 25.3725C30.1544 25.666 30.1156 25.9288 30.0381 26.1609C29.964 26.3931 29.8562 26.5893 29.7146 26.7497C29.5731 26.9068 29.4012 27.0279 29.1991 27.1133C28.9969 27.1952 28.7694 27.2361 28.5167 27.2361C28.2437 27.2361 28.0045 27.1918 27.7989 27.103C27.5967 27.0109 27.4266 26.8829 27.2884 26.719C27.1536 26.5552 27.0525 26.3589 26.9851 26.1302C26.9177 25.9015 26.884 25.6489 26.884 25.3725ZM27.6776 25.3725C27.6776 25.55 27.6945 25.7121 27.7282 25.8589C27.7619 26.0056 27.8124 26.1319 27.8798 26.2377C27.9472 26.3436 28.0331 26.4255 28.1376 26.4835C28.2454 26.5415 28.3718 26.5705 28.5167 26.5705C28.7829 26.5705 28.9901 26.4784 29.1384 26.2941C29.2867 26.1097 29.3608 25.8025 29.3608 25.3725C29.3608 25.2018 29.3456 25.0431 29.3153 24.8963C29.285 24.7495 29.2344 24.6232 29.1637 24.5174C29.0963 24.4082 29.0087 24.3246 28.9008 24.2665C28.7964 24.2051 28.6683 24.1744 28.5167 24.1744C28.2538 24.1744 28.0483 24.27 27.9 24.4611C27.7517 24.6523 27.6776 24.956 27.6776 25.3725Z" fill="white"/>
<path d="M17.4005 0.563188C17.4005 0.127358 16.8841 -0.0469731 16.54 0.301691C16.3678 0.301691 16.1957 0.388856 16.1096 0.563188C12.4955 7.18779 10.5162 11.9819 15.9376 18.0835C16.0237 18.1707 16.1096 18.2579 16.2818 18.2579C16.1957 23.9236 16.1096 29.5023 16.0237 35.1681C13.9584 28.8049 7.67645 27.0616 1.05033 27.3231C0.878223 27.2359 0.79217 27.2359 0.620063 27.3231C0.447956 27.3231 0.361902 27.4103 0.189795 27.4975C-1.35917 28.1948 6.81592 47.2842 15.8516 40.0493C15.7655 47.3712 15.5934 50.8579 15.3353 58.8771C12.5815 52.7755 7.50435 51.7296 0.878226 50.6836C0.792173 50.6836 0.792169 50.6836 0.706114 50.6836C0.447954 50.6836 0.189793 50.9451 0.275847 51.2065C0.189793 51.3809 0.189793 51.5552 0.275847 51.6424C-0.154421 52.2526 1.91086 56.3494 2.34114 57.0467C8.53699 67.9424 16.1957 62.7996 16.1957 61.7537C16.3678 61.5793 16.4539 61.405 16.3678 61.1434C17.0563 40.7466 16.8841 47.6327 17.1423 18.6065C17.2284 18.6065 17.3145 18.5193 17.4005 18.5193C22.5637 12.5921 20.7566 7.97229 17.4005 0.563188ZM16.4539 2.04501C16.4539 6.9263 16.3678 11.8947 16.2818 16.7761C12.2373 11.7204 13.4421 7.79795 16.4539 2.04501ZM12.0652 30.8969C13.2699 31.8558 14.1305 32.9888 14.8189 34.5578C15.2492 35.6039 15.5073 36.6499 15.5934 37.6958C10.8604 34.4706 6.21355 31.8558 2.16903 28.1948C5.69723 28.1948 9.31148 28.8049 12.0652 30.8969ZM7.67645 39.0033C7.67645 39.0033 4.49247 36.737 1.99692 30.8097C1.73876 30.1124 1.4806 29.4151 1.22243 28.5434C5.61117 32.6402 10.8604 35.4295 15.6794 38.8291C15.5934 38.9162 15.5934 39.0034 15.5073 39.0905C13.5281 41.0082 10.6883 41.3568 7.67645 39.0033ZM8.8812 53.4728C8.19277 53.2114 11.1186 54.0831 13.1839 56.698C13.2699 56.7852 13.1839 56.698 13.2699 56.7852C14.0444 57.8312 14.6467 59.0515 15.1632 60.2718C10.6023 57.8312 6.04143 55.129 2.16903 51.7296C4.40642 52.1654 6.72987 52.6013 8.8812 53.4728ZM1.65271 52.6883C5.78328 56.175 10.6023 59.0515 15.3353 61.5793C9.13937 65.6761 3.71799 58.7899 1.65271 52.6883ZM19.5519 12.1563C19.5519 12.1563 19.3797 14.4226 17.2284 17.1247C17.3145 12.4177 17.3145 7.7108 17.3145 3.00384C18.8634 6.49047 19.9821 9.19261 19.5519 12.1563Z" fill="white"/>
<path d="M12.2376 22.8776C13.5284 21.7444 13.0121 20.0012 11.7213 19.4781C10.9468 19.1295 10.0863 19.3909 9.91417 19.7396C7.33258 20.9599 10.0002 24.7952 12.2376 22.8776Z" fill="white"/>
<path d="M10.6883 49.1145C13.7862 48.5915 13.0978 43.1 9.65565 44.4947C9.22538 44.669 8.53695 45.1048 8.53695 45.5407C7.59035 47.2841 8.53695 49.4632 10.6883 49.1145Z" fill="white"/>
</svg>
