<svg width="98" height="48" viewBox="0 0 98 48" fill="none" xmlns="http://www.w3.org/2000/svg">
<path d="M22.8215 33.1632H21.7627L21.6014 31.8934H16.6604L16.4991 33.1632H15.4403V30.5622H16.2571C16.3109 30.4871 16.3949 30.3233 16.5092 30.0707C16.6234 29.8181 16.7377 29.4563 16.852 28.9852C16.9663 28.5142 17.0638 27.9305 17.1444 27.2342C17.2318 26.531 17.2688 25.6948 17.2554 24.7254H21.8535V30.5622H22.8215V33.1632ZM20.3611 30.5622V26.0566H18.6469C18.6066 27.2308 18.5024 28.1933 18.3343 28.9443C18.173 29.6952 18.0083 30.2345 17.8402 30.5622H20.3611ZM23.6683 24.7254H28.216V26.0566H25.1607V27.6131H27.9337V28.9443H25.1607V30.5622H28.2664V31.8934H23.6683V24.7254ZM31.2654 28.8624H30.8721V31.8934H29.3797V24.7254H30.8721V27.8793L31.225 27.7257L33.3426 24.7254H35.0467L32.8082 27.7257L32.2233 28.1148L32.8283 28.5244L35.3896 31.8934H33.5443L31.2654 28.8624ZM35.5874 28.3094C35.5874 27.7223 35.6614 27.1966 35.8093 26.7324C35.9572 26.2682 36.1689 25.8791 36.4446 25.5651C36.7269 25.2442 37.0697 25.0019 37.4731 24.838C37.8764 24.6674 38.3335 24.582 38.8444 24.582C39.389 24.582 39.8629 24.6742 40.2662 24.8585C40.6763 25.036 41.0158 25.2886 41.2847 25.6163C41.5603 25.944 41.7653 26.3365 41.8998 26.7939C42.041 27.2513 42.1115 27.7564 42.1115 28.3094C42.1115 28.8965 42.0342 29.4221 41.8796 29.8864C41.7317 30.3506 41.5166 30.7431 41.2343 31.064C40.9519 31.378 40.6091 31.6203 40.2057 31.791C39.8024 31.9548 39.3486 32.0368 38.8444 32.0368C38.2999 32.0368 37.8226 31.948 37.4126 31.7705C37.0092 31.5862 36.6698 31.3302 36.3941 31.0025C36.1252 30.6748 35.9236 30.2823 35.7891 29.8249C35.6547 29.3675 35.5874 28.8624 35.5874 28.3094ZM37.1706 28.3094C37.1706 28.6644 37.2042 28.9886 37.2714 29.2822C37.3386 29.5757 37.4395 29.8283 37.5739 30.04C37.7084 30.2516 37.8798 30.4154 38.0882 30.5315C38.3033 30.6475 38.5554 30.7056 38.8444 30.7056C39.3755 30.7056 39.7889 30.5212 40.0847 30.1526C40.3805 29.784 40.5284 29.1696 40.5284 28.3094C40.5284 27.9681 40.4982 27.6506 40.4377 27.3571C40.3772 27.0635 40.2763 26.8109 40.1352 26.5993C40.0007 26.3809 39.8259 26.2136 39.6108 26.0976C39.4024 25.9747 39.147 25.9132 38.8444 25.9132C38.3201 25.9132 37.91 26.1044 37.6143 26.4867C37.3185 26.869 37.1706 27.4765 37.1706 28.3094ZM43.1659 24.7971C43.4684 24.7425 43.8045 24.7015 44.1743 24.6742C44.544 24.6401 44.9137 24.623 45.2835 24.623C45.6599 24.623 46.0397 24.6537 46.4229 24.7152C46.8061 24.7698 47.1489 24.8858 47.4514 25.0633C47.7607 25.234 48.0128 25.4763 48.2077 25.7904C48.4027 26.0976 48.5001 26.5072 48.5001 27.0192C48.5001 27.4697 48.4161 27.8554 48.248 28.1763C48.08 28.4903 47.8548 28.7463 47.5724 28.9443C47.2968 29.1422 46.9809 29.289 46.6246 29.3846C46.2683 29.4733 45.9019 29.5177 45.5255 29.5177C45.4919 29.5177 45.4347 29.5177 45.354 29.5177C45.2734 29.5177 45.186 29.5177 45.0919 29.5177C45.0045 29.5109 44.9204 29.5041 44.8398 29.4972C44.7591 29.4904 44.6986 29.4836 44.6583 29.4768V31.8934H43.1659V24.7971ZM45.3843 25.9542C45.2431 25.9542 45.1053 25.9576 44.9709 25.9644C44.8431 25.9713 44.7389 25.9849 44.6583 26.0054V28.1353C44.6852 28.1421 44.7289 28.149 44.7894 28.1558C44.8499 28.1626 44.9137 28.1694 44.981 28.1763C45.0482 28.1763 45.1087 28.1797 45.1625 28.1865C45.223 28.1865 45.27 28.1865 45.3036 28.1865C45.4986 28.1865 45.6935 28.1729 45.8885 28.1456C46.0834 28.1182 46.2548 28.0602 46.4027 27.9715C46.5574 27.8827 46.6817 27.7633 46.7758 27.6131C46.8699 27.4561 46.917 27.2478 46.917 26.9884C46.917 26.77 46.8733 26.5959 46.7859 26.4662C46.6985 26.3297 46.5809 26.2238 46.433 26.1488C46.2918 26.0737 46.1271 26.0225 45.9389 25.9952C45.7574 25.9678 45.5725 25.9542 45.3843 25.9542ZM52.3635 30.3676H49.9838L49.409 31.8934H47.9166L50.6796 24.6742H51.7787L54.5517 31.8934H52.9685L52.3635 30.3676ZM50.3972 29.1696H52.0106L51.4661 27.6745L51.2241 26.5379H51.1736L50.9316 27.6848L50.3972 29.1696ZM59.7776 26.0566H57.539V31.8934H56.0467V26.0566H53.8081V24.7254H59.7776V26.0566ZM65.0433 27.9408L65.124 27.0294H65.0736L64.5593 27.951L61.6653 31.8934H60.5561V24.7254H62.0485V28.5859L61.9477 29.5382H62.0082L62.5527 28.5859L65.4164 24.7254H66.5357V31.8934H65.0433V27.9408ZM73.0059 26.415C73.0059 26.5925 72.979 26.77 72.9252 26.9475C72.8782 27.1181 72.8009 27.2786 72.6933 27.4288C72.5858 27.5789 72.4446 27.7086 72.2698 27.8179C72.095 27.9271 71.8833 28.0056 71.6345 28.0534V28.1148C71.8564 28.1353 72.0648 28.1865 72.2597 28.2684C72.4547 28.3504 72.6227 28.4664 72.7639 28.6166C72.9118 28.76 73.0261 28.9374 73.1067 29.1491C73.1941 29.3539 73.2378 29.5962 73.2378 29.8761C73.2378 30.2516 73.1504 30.5724 72.9757 30.8387C72.8076 31.1049 72.5858 31.3234 72.3101 31.494C72.0345 31.6647 71.7186 31.791 71.3623 31.8729C71.006 31.9548 70.643 31.9958 70.2732 31.9958C70.1522 31.9958 69.9909 31.9958 69.7892 31.9958C69.5943 31.9958 69.3825 31.989 69.154 31.9753C68.9321 31.9685 68.7036 31.9548 68.4683 31.9344C68.2397 31.9139 68.0313 31.8832 67.8431 31.8422V24.7766C67.9843 24.7561 68.1423 24.7356 68.317 24.7152C68.4985 24.6947 68.6901 24.6776 68.8918 24.664C69.1002 24.6503 69.3119 24.6401 69.5271 24.6332C69.7422 24.6264 69.9573 24.623 70.1724 24.623C70.522 24.623 70.8648 24.6503 71.2009 24.7049C71.5371 24.7527 71.8396 24.8449 72.1085 24.9814C72.3774 25.1111 72.5925 25.292 72.7538 25.5241C72.9219 25.7562 73.0059 26.0532 73.0059 26.415ZM70.2531 30.767C70.4413 30.767 70.6194 30.7499 70.7875 30.7158C70.9623 30.6817 71.1135 30.627 71.2413 30.552C71.3757 30.47 71.4799 30.371 71.5539 30.255C71.6345 30.1321 71.6749 29.9819 71.6749 29.8044C71.6749 29.586 71.6278 29.4119 71.5337 29.2822C71.4396 29.1525 71.3152 29.0569 71.1606 28.9955C71.0127 28.9272 70.8447 28.8862 70.6564 28.8726C70.4749 28.8521 70.2901 28.8419 70.1018 28.8419H69.275V30.7056C69.3153 30.7192 69.3724 30.7294 69.4464 30.7363C69.5271 30.7431 69.6145 30.7499 69.7086 30.7568C69.8027 30.7568 69.8968 30.7602 69.9909 30.767C70.0917 30.767 70.1791 30.767 70.2531 30.767ZM69.7792 27.7155C69.88 27.7155 69.9976 27.7155 70.1321 27.7155C70.2732 27.7086 70.3909 27.6984 70.485 27.6848C70.7673 27.596 71.006 27.4765 71.2009 27.3264C71.3959 27.1693 71.4934 26.9577 71.4934 26.6915C71.4934 26.514 71.4564 26.3706 71.3824 26.2614C71.3085 26.1522 71.2077 26.0668 71.0799 26.0054C70.9589 25.944 70.8211 25.903 70.6665 25.8825C70.5119 25.862 70.3539 25.8518 70.1926 25.8518C69.9976 25.8518 69.8195 25.8552 69.6582 25.862C69.4968 25.8689 69.3691 25.8791 69.275 25.8928V27.7155H69.7792ZM78.6187 28.934H75.7953V31.8934H74.3029V24.7254H75.7953V27.6028H78.6187V24.7254H80.1111V31.8934H78.6187V28.934ZM87.3416 24.7254H88.834V31.8934H87.3416V24.7254ZM81.4226 24.7254H82.9149V27.2752C82.9889 27.2615 83.1099 27.2444 83.2779 27.224C83.4527 27.2035 83.6275 27.1932 83.8023 27.1932C84.1653 27.1932 84.5115 27.2308 84.8409 27.3059C85.177 27.3741 85.4694 27.497 85.7182 27.6745C85.9736 27.8452 86.1753 28.0807 86.3231 28.3811C86.4711 28.6814 86.545 29.0569 86.545 29.5075C86.545 30.3335 86.2829 30.9547 85.7585 31.3712C85.2342 31.7876 84.4678 31.9958 83.4594 31.9958C83.3586 31.9958 83.2275 31.9924 83.0662 31.9856C82.9048 31.9856 82.7301 31.9787 82.5418 31.9651C82.3536 31.9514 82.162 31.9344 81.9671 31.9139C81.7721 31.8934 81.5906 31.8627 81.4226 31.8217V24.7254ZM83.5603 30.6646C83.9704 30.6646 84.3065 30.5793 84.5686 30.4086C84.8308 30.2379 84.9619 29.9546 84.9619 29.5587C84.9619 29.347 84.9249 29.1764 84.851 29.0467C84.777 28.9101 84.6762 28.8043 84.5485 28.7292C84.4275 28.6473 84.2796 28.5927 84.1048 28.5654C83.9367 28.5381 83.7586 28.5244 83.5704 28.5244C83.5233 28.5244 83.4662 28.5278 83.3989 28.5347C83.3384 28.5415 83.2746 28.5483 83.2074 28.5552C83.1469 28.562 83.0897 28.5722 83.0359 28.5859C82.9822 28.5927 82.9418 28.5995 82.9149 28.6064V30.6134C83.083 30.6475 83.2981 30.6646 83.5603 30.6646ZM90.1472 24.7254H94.6949V26.0566H91.6396V27.6131H94.4126V28.9443H91.6396V30.5622H94.7453V31.8934H90.1472V24.7254ZM17.9814 42.089H17.5881V45.1201H16.0957V37.9521H17.5881V41.106L17.941 40.9524L20.0586 37.9521H21.7627L19.5242 40.9524L18.9393 41.3415L19.5443 41.7511L22.1056 45.1201H20.2603L17.9814 42.089ZM25.0083 41.0753L25.2301 41.9866H25.3007L25.4721 41.0343L26.6217 37.9521H28.1846L26.1376 42.9389C25.983 43.3212 25.8284 43.6523 25.6738 43.9322C25.5192 44.2121 25.3545 44.4476 25.1797 44.6388C25.0049 44.8231 24.81 44.963 24.5949 45.0586C24.3797 45.1474 24.131 45.1917 23.8487 45.1917C23.6067 45.1917 23.4151 45.1781 23.2739 45.1508C23.1327 45.1235 22.9748 45.0552 22.8 44.946L23.1731 43.7274C23.3008 43.7889 23.4151 43.8264 23.5159 43.8401C23.6235 43.8537 23.7344 43.8605 23.8487 43.8605C24.1982 43.8605 24.4402 43.6216 24.5747 43.1437L21.7008 37.9521H23.4554L25.0083 41.0753ZM32.3394 39.2833H30.7159C30.6823 39.9318 30.6453 40.5189 30.605 41.0445C30.5714 41.5634 30.521 42.031 30.4537 42.4474C30.3932 42.8638 30.3092 43.2359 30.2016 43.5636C30.0941 43.8844 29.9596 44.1677 29.7983 44.4135C29.6907 44.5705 29.5697 44.7002 29.4353 44.8026C29.3076 44.905 29.1731 44.9869 29.032 45.0484C28.8908 45.103 28.753 45.1405 28.6185 45.161C28.4841 45.1883 28.3597 45.202 28.2454 45.202C28.0706 45.202 27.9328 45.1883 27.832 45.161C27.7379 45.1337 27.6336 45.0928 27.5193 45.0381L27.6807 43.7684C27.7547 43.7957 27.8421 43.8093 27.9429 43.8093C28.0572 43.8093 28.1715 43.782 28.2858 43.7274C28.4 43.6728 28.5009 43.5841 28.5883 43.4612C28.6958 43.311 28.7899 43.096 28.8706 42.8161C28.958 42.5362 29.0285 42.1744 29.0824 41.7306C29.1429 41.2801 29.1899 40.7442 29.2235 40.1229C29.2639 39.5017 29.2908 38.7781 29.3042 37.9521H33.8317V45.1201H32.3394V39.2833ZM35.1404 37.9521H36.6328V40.5018C36.6664 40.495 36.7235 40.4882 36.8042 40.4813C36.8849 40.4677 36.9723 40.4574 37.0664 40.4506C37.1672 40.4438 37.268 40.437 37.3689 40.4301C37.4764 40.4233 37.5706 40.4199 37.6512 40.4199C38.0142 40.4199 38.3638 40.454 38.6999 40.5223C39.0428 40.5906 39.3419 40.7134 39.5974 40.8909C39.8595 41.0684 40.0679 41.3074 40.2225 41.6077C40.3839 41.9081 40.4645 42.287 40.4645 42.7444C40.4645 43.5636 40.1856 44.1814 39.6276 44.5978C39.0764 45.0142 38.2999 45.2225 37.2983 45.2225C37.1975 45.2225 37.0597 45.219 36.8849 45.2122C36.7168 45.2122 36.5319 45.2054 36.3303 45.1917C36.1286 45.1781 35.9236 45.161 35.7152 45.1405C35.5068 45.1201 35.3152 45.0893 35.1404 45.0484V37.9521ZM37.3689 43.8913C37.5706 43.8913 37.7621 43.8742 37.9436 43.8401C38.1319 43.8059 38.2932 43.7479 38.4277 43.666C38.5688 43.5772 38.6798 43.4646 38.7604 43.3281C38.8411 43.1847 38.8814 43.0072 38.8814 42.7956C38.8814 42.5703 38.8377 42.3894 38.7503 42.2529C38.6697 42.1163 38.5587 42.0105 38.4176 41.9354C38.2764 41.8603 38.1151 41.8125 37.9336 41.7921C37.7521 41.7648 37.5638 41.7511 37.3689 41.7511C37.3151 41.7511 37.2512 41.7545 37.1773 41.7613C37.1101 41.7682 37.0395 41.775 36.9655 41.7818C36.8916 41.7886 36.8244 41.7989 36.7639 41.8125C36.7034 41.8194 36.6597 41.8262 36.6328 41.833V43.8401C36.7134 43.8537 36.8176 43.8674 36.9454 43.881C37.0798 43.8878 37.221 43.8913 37.3689 43.8913ZM45.5975 39.2833H43.359V45.1201H41.8666V39.2833H39.628V37.9521H45.5975V39.2833ZM49.1045 41.0753L49.3264 41.9866H49.3969L49.5684 41.0343L50.7179 37.9521H52.2808L50.2339 42.9389C50.0793 43.3212 49.9246 43.6523 49.77 43.9322C49.6154 44.2121 49.4507 44.4476 49.2759 44.6388C49.1012 44.8231 48.9062 44.963 48.6911 45.0586C48.476 45.1474 48.2272 45.1917 47.9449 45.1917C47.7029 45.1917 47.5113 45.1781 47.3701 45.1508C47.229 45.1235 47.071 45.0552 46.8962 44.946L47.2693 43.7274C47.397 43.7889 47.5113 43.8264 47.6121 43.8401C47.7197 43.8537 47.8306 43.8605 47.9449 43.8605C48.2945 43.8605 48.5365 43.6216 48.6709 43.1437L45.7971 37.9521H47.5516L49.1045 41.0753ZM52.767 38.0237C53.0695 37.9691 53.4056 37.9282 53.7753 37.9009C54.1451 37.8667 54.5148 37.8497 54.8845 37.8497C55.261 37.8497 55.6408 37.8804 56.024 37.9418C56.4071 37.9964 56.75 38.1125 57.0525 38.29C57.3617 38.4606 57.6138 38.703 57.8088 39.017C58.0037 39.3242 58.1012 39.7338 58.1012 40.2458C58.1012 40.6964 58.0172 41.0821 57.8491 41.4029C57.681 41.717 57.4558 41.973 57.1735 42.1709C56.8979 42.3689 56.5819 42.5157 56.2256 42.6113C55.8694 42.7 55.503 42.7444 55.1265 42.7444C55.0929 42.7444 55.0358 42.7444 54.9551 42.7444C54.8744 42.7444 54.787 42.7444 54.6929 42.7444C54.6055 42.7376 54.5215 42.7307 54.4408 42.7239C54.3602 42.7171 54.2997 42.7102 54.2593 42.7034V45.1201H52.767V38.0237ZM54.9854 39.1809C54.8442 39.1809 54.7064 39.1843 54.5719 39.1911C54.4442 39.1979 54.34 39.2116 54.2593 39.2321V41.362C54.2862 41.3688 54.3299 41.3756 54.3904 41.3825C54.4509 41.3893 54.5148 41.3961 54.582 41.4029C54.6492 41.4029 54.7097 41.4064 54.7635 41.4132C54.824 41.4132 54.8711 41.4132 54.9047 41.4132C55.0996 41.4132 55.2946 41.3995 55.4895 41.3722C55.6845 41.3449 55.8559 41.2869 56.0038 41.1981C56.1584 41.1094 56.2828 40.9899 56.3769 40.8397C56.471 40.6827 56.5181 40.4745 56.5181 40.2151C56.5181 39.9966 56.4744 39.8226 56.387 39.6929C56.2996 39.5563 56.1819 39.4505 56.034 39.3754C55.8929 39.3003 55.7282 39.2491 55.54 39.2218C55.3584 39.1945 55.1736 39.1809 54.9854 39.1809ZM64.939 37.9521H66.4314V45.1201H64.939V37.9521ZM59.02 37.9521H60.5123V40.5018C60.5863 40.4882 60.7073 40.4711 60.8753 40.4506C61.0501 40.4301 61.2249 40.4199 61.3997 40.4199C61.7627 40.4199 62.1089 40.4574 62.4383 40.5325C62.7744 40.6008 63.0668 40.7237 63.3156 40.9012C63.571 41.0718 63.7727 41.3074 63.9206 41.6077C64.0685 41.9081 64.1424 42.2836 64.1424 42.7341C64.1424 43.5602 63.8802 44.1814 63.3559 44.5978C62.8316 45.0142 62.0652 45.2225 61.0568 45.2225C60.956 45.2225 60.8249 45.219 60.6636 45.2122C60.5022 45.2122 60.3275 45.2054 60.1392 45.1917C59.951 45.1781 59.7594 45.161 59.5645 45.1405C59.3695 45.1201 59.188 45.0893 59.02 45.0484V37.9521ZM61.1577 43.8913C61.5677 43.8913 61.9039 43.8059 62.166 43.6353C62.4282 43.4646 62.5593 43.1813 62.5593 42.7853C62.5593 42.5737 62.5223 42.403 62.4484 42.2733C62.3744 42.1368 62.2736 42.031 62.1459 41.9559C62.0249 41.874 61.877 41.8194 61.7022 41.7921C61.5341 41.7648 61.356 41.7511 61.1678 41.7511C61.1207 41.7511 61.0636 41.7545 60.9963 41.7613C60.9358 41.7682 60.872 41.775 60.8047 41.7818C60.7442 41.7886 60.6871 41.7989 60.6333 41.8125C60.5795 41.8194 60.5392 41.8262 60.5123 41.833V43.8401C60.6804 43.8742 60.8955 43.8913 61.1577 43.8913Z" fill="#011627"/>
<path d="M15.9246 19.1947V18.7608H16.0229C16.0481 18.7608 16.0784 18.7608 16.1137 18.7608C16.1515 18.7608 16.1893 18.7608 16.2271 18.7608C16.2675 18.7582 16.3053 18.7557 16.3406 18.7531C16.3784 18.748 16.4086 18.7429 16.4313 18.7378C16.5271 18.7198 16.6065 18.6878 16.6695 18.6418C16.7351 18.5931 16.7679 18.524 16.7679 18.4344C16.7679 18.3192 16.7263 18.2411 16.6431 18.2002C16.5624 18.1592 16.454 18.1387 16.3179 18.1387C16.2574 18.1387 16.1969 18.1438 16.1364 18.1541C16.0784 18.1618 16.0229 18.1733 15.97 18.1886C15.9196 18.204 15.8729 18.2206 15.8301 18.2386C15.7872 18.2539 15.7519 18.2693 15.7242 18.2846L15.5843 17.8008C15.612 17.788 15.6524 17.7726 15.7053 17.7547C15.7608 17.7342 15.825 17.7163 15.8981 17.701C15.9713 17.683 16.0507 17.669 16.1364 17.6587C16.2221 17.6459 16.3091 17.6395 16.3973 17.6395C16.5183 17.6395 16.6355 17.6498 16.749 17.6702C16.8649 17.6907 16.9683 17.7266 17.059 17.7778C17.1498 17.829 17.2229 17.8981 17.2783 17.9851C17.3338 18.0722 17.3615 18.1822 17.3615 18.3154C17.3615 18.4459 17.3237 18.5675 17.2481 18.6802C17.1725 18.7928 17.0515 18.8747 16.8851 18.9259V18.949C17.0615 18.9771 17.1989 19.0475 17.2972 19.1602C17.3981 19.2728 17.4485 19.4213 17.4485 19.6056C17.4485 19.749 17.417 19.8731 17.354 19.9781C17.2909 20.0805 17.2078 20.165 17.1044 20.2315C17.0036 20.2981 16.8863 20.3467 16.7527 20.3774C16.6216 20.4107 16.4868 20.4274 16.3481 20.4274C16.2574 20.4274 16.1691 20.4222 16.0834 20.412C16.0002 20.4043 15.9221 20.3941 15.849 20.3813C15.7759 20.3685 15.7103 20.3531 15.6524 20.3352C15.5944 20.3173 15.5465 20.2981 15.5087 20.2776L15.6524 19.7861C15.7154 19.8142 15.8061 19.845 15.9246 19.8782C16.0456 19.9115 16.1893 19.9282 16.3557 19.9282C16.4137 19.9282 16.4717 19.9218 16.5296 19.909C16.5901 19.8962 16.6443 19.8757 16.6922 19.8475C16.7401 19.8168 16.7792 19.7784 16.8095 19.7323C16.8397 19.6862 16.8548 19.6286 16.8548 19.5595C16.8548 19.5006 16.8435 19.4494 16.8208 19.4059C16.8006 19.3624 16.7641 19.3266 16.7111 19.2984C16.6607 19.2677 16.5914 19.2446 16.5032 19.2293C16.4175 19.2114 16.3103 19.2011 16.1817 19.1986C16.149 19.1986 16.1238 19.1986 16.1061 19.1986C16.091 19.196 16.0633 19.1947 16.0229 19.1947H15.9246ZM19.2647 19.8014H18.3723L18.1568 20.3736H17.5971L18.6332 17.6664H19.0454L20.0853 20.3736H19.4916L19.2647 19.8014ZM18.5273 19.3522H19.1324L18.9282 18.7915L18.8374 18.3653H18.8185L18.7278 18.7954L18.5273 19.3522ZM20.1117 19.0296C20.1117 18.8094 20.1395 18.6123 20.1949 18.4382C20.2504 18.2642 20.3298 18.1182 20.4331 18.0005C20.539 17.8802 20.6676 17.7893 20.8188 17.7278C20.9701 17.6638 21.1415 17.6318 21.3331 17.6318C21.5373 17.6318 21.715 17.6664 21.8663 17.7355C22.02 17.8021 22.1474 17.8968 22.2482 18.0197C22.3515 18.1426 22.4284 18.2898 22.4789 18.4613C22.5318 18.6328 22.5583 18.8222 22.5583 19.0296C22.5583 19.2498 22.5293 19.4469 22.4713 19.621C22.4158 19.795 22.3352 19.9422 22.2293 20.0626C22.1234 20.1803 21.9948 20.2712 21.8436 20.3352C21.6923 20.3966 21.5222 20.4274 21.3331 20.4274C21.1289 20.4274 20.9499 20.3941 20.7962 20.3275C20.6449 20.2584 20.5176 20.1624 20.4142 20.0395C20.3134 19.9166 20.2378 19.7694 20.1874 19.5979C20.1369 19.4264 20.1117 19.237 20.1117 19.0296ZM20.7054 19.0296C20.7054 19.1627 20.718 19.2843 20.7432 19.3944C20.7684 19.5045 20.8062 19.5992 20.8567 19.6786C20.9071 19.7579 20.9714 19.8194 21.0495 19.8629C21.1302 19.9064 21.2247 19.9282 21.3331 19.9282C21.5323 19.9282 21.6873 19.859 21.7982 19.7208C21.9091 19.5826 21.9646 19.3522 21.9646 19.0296C21.9646 18.9016 21.9532 18.7826 21.9306 18.6725C21.9079 18.5624 21.8701 18.4677 21.8171 18.3883C21.7667 18.3064 21.7012 18.2437 21.6205 18.2002C21.5423 18.1541 21.4465 18.131 21.3331 18.131C21.1365 18.131 20.9827 18.2027 20.8718 18.3461C20.7609 18.4894 20.7054 18.7173 20.7054 19.0296Z" fill="#011627"/>
<path d="M13.0172 0.422147C13.0172 0.0952744 12.6309 -0.035474 12.3734 0.226024C12.2446 0.226024 12.1159 0.291398 12.0515 0.422147C9.34774 5.3906 7.8671 8.98619 11.9228 13.5624C11.9872 13.6278 12.0515 13.6932 12.1803 13.6932C12.1159 17.9424 12.0515 22.1264 11.9872 26.3758C10.4421 21.6035 5.74269 20.2959 0.785743 20.4921C0.656991 20.4267 0.592616 20.4267 0.463864 20.4921C0.335112 20.4921 0.270736 20.5575 0.141984 20.6229C-1.01678 21.1459 5.09893 35.4629 11.8584 30.0367C11.794 35.5282 11.6653 38.1432 11.4722 44.1576C9.41212 39.5814 5.61394 38.797 0.656993 38.0124C0.592618 38.0124 0.592615 38.0124 0.528238 38.0124C0.335111 38.0124 0.141983 38.2086 0.206359 38.4046C0.141983 38.5354 0.141983 38.6662 0.206359 38.7316C-0.115521 39.1892 1.4295 42.2618 1.75139 42.7848C6.38645 50.9565 12.1159 47.0995 12.1159 46.315C12.2446 46.1843 12.309 46.0535 12.2446 45.8573C12.7596 30.5597 12.6309 35.7243 12.824 13.9546C12.8884 13.9546 12.9528 13.8892 13.0172 13.8892C16.8797 9.44381 15.5278 5.97897 13.0172 0.422147ZM12.309 1.53351C12.309 5.19448 12.2446 8.92082 12.1803 12.5818C9.15461 8.79008 10.0559 5.84822 12.309 1.53351ZM9.02587 23.1724C9.92713 23.8916 10.5709 24.7414 11.0859 25.9181C11.4078 26.7027 11.6009 27.4872 11.6653 28.2716C8.1246 25.8527 4.6483 23.8916 1.62263 21.1459C4.26205 21.1459 6.96584 21.6035 9.02587 23.1724ZM5.74269 29.2522C5.74269 29.2522 3.36078 27.5525 1.49388 23.107C1.30075 22.584 1.10762 22.0611 0.914493 21.4073C4.19767 24.4799 8.1246 26.5719 11.7297 29.1215C11.6653 29.1869 11.6653 29.2523 11.6009 29.3176C10.1203 30.7559 7.99585 31.0173 5.74269 29.2522ZM6.64395 40.1044C6.12894 39.9083 8.31773 40.5621 9.86275 42.5233C9.92713 42.5886 9.86275 42.5233 9.92713 42.5886C10.5065 43.3732 10.9571 44.2884 11.3434 45.2036C7.93147 43.3732 4.51955 41.3465 1.62263 38.797C3.2964 39.1238 5.03456 39.4507 6.64395 40.1044ZM1.23638 39.516C4.32642 42.131 7.93147 44.2884 11.4722 46.1843C6.83708 49.2568 2.78139 44.0922 1.23638 39.516ZM14.6266 9.11695C14.6266 9.11695 14.4978 10.8167 12.8884 12.8432C12.9528 9.31306 12.9528 5.78285 12.9528 2.25264C14.1116 4.86761 14.9484 6.89421 14.6266 9.11695Z" fill="#011627"/>
<path d="M9.1549 17.1585C10.1205 16.3085 9.73429 15.0011 8.76865 14.6088C8.18927 14.3474 7.54551 14.5434 7.41676 14.805C5.48549 15.7202 7.48113 18.5966 9.1549 17.1585Z" fill="#011627"/>
<path d="M7.99578 36.8356C10.3133 36.4434 9.79831 32.3248 7.22327 33.3708C6.9014 33.5015 6.38639 33.8284 6.38639 34.1553C5.67825 35.4628 6.38639 37.0972 7.99578 36.8356Z" fill="#011627"/>
</svg>
