<svg width="14" height="14" viewBox="0 0 14 14" fill="none" xmlns="http://www.w3.org/2000/svg">
<path d="M7.00016 0.333984C3.32016 0.333984 0.333496 3.32065 0.333496 7.00065C0.333496 10.6807 3.32016 13.6673 7.00016 13.6673H10.3335V12.334H7.00016C4.10683 12.334 1.66683 9.89398 1.66683 7.00065C1.66683 4.10732 4.10683 1.66732 7.00016 1.66732C9.8935 1.66732 12.3335 4.10732 12.3335 7.00065V7.95398C12.3335 8.48065 11.8602 9.00065 11.3335 9.00065C10.8068 9.00065 10.3335 8.48065 10.3335 7.95398V7.00065C10.3335 5.16065 8.84016 3.66732 7.00016 3.66732C5.16016 3.66732 3.66683 5.16065 3.66683 7.00065C3.66683 8.84065 5.16016 10.334 7.00016 10.334C7.92016 10.334 8.76016 9.96065 9.36016 9.35398C9.7935 9.94732 10.5402 10.334 11.3335 10.334C12.6468 10.334 13.6668 9.26732 13.6668 7.95398V7.00065C13.6668 3.32065 10.6802 0.333984 7.00016 0.333984ZM7.00016 9.00065C5.8935 9.00065 5.00016 8.10732 5.00016 7.00065C5.00016 5.89398 5.8935 5.00065 7.00016 5.00065C8.10683 5.00065 9.00016 5.89398 9.00016 7.00065C9.00016 8.10732 8.10683 9.00065 7.00016 9.00065Z" fill="white" fill-opacity="0.9"/>
</svg>
