<svg width="14" height="14" viewBox="0 0 14 14" fill="none" xmlns="http://www.w3.org/2000/svg">
<path d="M10.5602 2.64065C10.4019 2.64065 10.2473 2.68757 10.1157 2.77548C9.98415 2.86338 9.88161 2.98832 9.82106 3.1345C9.76051 3.28069 9.74467 3.44154 9.77553 3.59672C9.8064 3.75191 9.8826 3.89445 9.99448 4.00634C10.1064 4.11822 10.2489 4.19441 10.4041 4.22528C10.5593 4.25615 10.7201 4.2403 10.8663 4.17975C11.0125 4.1192 11.1374 4.01667 11.2253 3.88511C11.3132 3.75355 11.3602 3.59888 11.3602 3.44065C11.3602 3.22848 11.2759 3.02499 11.1258 2.87497C10.9758 2.72494 10.7723 2.64065 10.5602 2.64065ZM13.6268 4.25398C13.6139 3.70085 13.5103 3.15359 13.3202 2.63398C13.1507 2.18941 12.8868 1.78684 12.5468 1.45398C12.2167 1.11227 11.8132 0.850102 11.3668 0.687318C10.8486 0.491425 10.3007 0.385458 9.74683 0.373984C9.04016 0.333984 8.8135 0.333984 7.00016 0.333984C5.18683 0.333984 4.96016 0.333984 4.2535 0.373984C3.6996 0.385458 3.15172 0.491425 2.6335 0.687318C2.18795 0.85175 1.78479 1.11369 1.4535 1.45398C1.11178 1.7841 0.849614 2.18761 0.686829 2.63398C0.490937 3.15221 0.384969 3.70009 0.373496 4.25398C0.333496 4.96065 0.333496 5.18732 0.333496 7.00065C0.333496 8.81398 0.333496 9.04065 0.373496 9.74732C0.384969 10.3012 0.490937 10.8491 0.686829 11.3673C0.849614 11.8137 1.11178 12.2172 1.4535 12.5473C1.78479 12.8876 2.18795 13.1496 2.6335 13.314C3.15172 13.5099 3.6996 13.6158 4.2535 13.6273C4.96016 13.6673 5.18683 13.6673 7.00016 13.6673C8.8135 13.6673 9.04016 13.6673 9.74683 13.6273C10.3007 13.6158 10.8486 13.5099 11.3668 13.314C11.8132 13.1512 12.2167 12.889 12.5468 12.5473C12.8883 12.2157 13.1524 11.8128 13.3202 11.3673C13.5103 10.8477 13.6139 10.3005 13.6268 9.74732C13.6268 9.04065 13.6668 8.81398 13.6668 7.00065C13.6668 5.18732 13.6668 4.96065 13.6268 4.25398ZM12.4268 9.66732C12.422 10.0905 12.3453 10.5098 12.2002 10.9073C12.0937 11.1974 11.9227 11.4596 11.7002 11.674C11.4839 11.8943 11.2223 12.0649 10.9335 12.174C10.536 12.3192 10.1167 12.3958 9.6935 12.4007C9.02683 12.434 8.78016 12.4407 7.02683 12.4407C5.2735 12.4407 5.02683 12.4407 4.36016 12.4007C3.92076 12.4089 3.48323 12.3412 3.06683 12.2007C2.79068 12.086 2.54107 11.9158 2.3335 11.7007C2.11222 11.4865 1.94339 11.2241 1.84016 10.934C1.6774 10.5308 1.58713 10.1019 1.5735 9.66732C1.5735 9.00065 1.5335 8.75398 1.5335 7.00065C1.5335 5.24732 1.5335 5.00065 1.5735 4.33398C1.57648 3.90135 1.65546 3.47261 1.80683 3.06732C1.92419 2.78593 2.10434 2.53509 2.3335 2.33398C2.53604 2.10476 2.78635 1.92271 3.06683 1.80065C3.4732 1.65401 3.90149 1.57737 4.3335 1.57398C5.00016 1.57398 5.24683 1.53398 7.00016 1.53398C8.7535 1.53398 9.00016 1.53398 9.66683 1.57398C10.09 1.57884 10.5093 1.65548 10.9068 1.80065C11.2098 1.91309 11.4817 2.09588 11.7002 2.33398C11.9186 2.53877 12.0893 2.78914 12.2002 3.06732C12.3483 3.47327 12.425 3.90184 12.4268 4.33398C12.4602 5.00065 12.4668 5.24732 12.4668 7.00065C12.4668 8.75398 12.4602 9.00065 12.4268 9.66732ZM7.00016 3.58065C6.32404 3.58197 5.66347 3.78367 5.10193 4.16026C4.54039 4.53686 4.10308 5.07145 3.84525 5.69649C3.58742 6.32153 3.52065 7.00896 3.65336 7.67194C3.78607 8.33491 4.11232 8.94368 4.59088 9.4213C5.06944 9.89893 5.67884 10.224 6.34207 10.3554C7.0053 10.4868 7.69261 10.4187 8.31714 10.1597C8.94168 9.90063 9.47542 9.46228 9.85092 8.90001C10.2264 8.33774 10.4268 7.67678 10.4268 7.00065C10.4277 6.55072 10.3396 6.10506 10.1677 5.68929C9.99568 5.27352 9.7432 4.89586 9.42474 4.57802C9.10628 4.26018 8.72813 4.00844 8.31203 3.83727C7.89593 3.6661 7.45009 3.57889 7.00016 3.58065ZM7.00016 9.22065C6.56109 9.22065 6.13187 9.09045 5.7668 8.84651C5.40172 8.60258 5.11718 8.25586 4.94915 7.85021C4.78112 7.44456 4.73716 6.99819 4.82282 6.56755C4.90848 6.13691 5.11991 5.74135 5.43039 5.43087C5.74086 5.1204 6.13642 4.90897 6.56706 4.82331C6.9977 4.73765 7.44407 4.78161 7.84972 4.94964C8.25537 5.11767 8.60209 5.40221 8.84603 5.76729C9.08996 6.13236 9.22016 6.56158 9.22016 7.00065C9.22016 7.29219 9.16274 7.58087 9.05118 7.85021C8.93961 8.11955 8.77609 8.36428 8.56994 8.57043C8.36379 8.77657 8.11906 8.9401 7.84972 9.05166C7.58038 9.16323 7.2917 9.22065 7.00016 9.22065Z" fill="white"/>
</svg>
