<svg width="32" height="48" viewBox="0 0 32 48" fill="none" xmlns="http://www.w3.org/2000/svg">
<path d="M7.50391 0.0234375C5.56991 0.0234375 4 1.59725 4 3.53125V24.5625C4 26.4965 5.56991 28.0664 7.50391 28.0664H16.5391C16.5531 28.0664 16.5621 28.0528 16.5781 28.0508C17.5781 30.3568 19.8711 31.9766 22.5391 31.9766C26.1231 31.9766 29.0391 29.0606 29.0391 25.4766C29.0391 22.7646 27.366 20.4428 25 19.4688V8.56643C25 8.55043 24.9824 8.53756 24.9804 8.51956C24.9784 8.38956 24.9494 8.26199 24.8554 8.16799L16.8555 0.167969C16.7515 0.0659688 16.6088 0.038875 16.4688 0.046875C16.4487 0.044875 16.4341 0.0234375 16.4141 0.0234375H7.50391H7.50391ZM7.50391 1.02344H16V5.54688C16 7.46488 17.5606 9.02344 19.4766 9.02344H24V19.1562C23.528 19.0462 23.0431 18.9766 22.5391 18.9766C18.9551 18.9766 16.0391 21.8926 16.0391 25.4766C16.0391 26.0286 16.1278 26.5544 16.2578 27.0664H7.50391C6.12391 27.0664 5 25.9386 5 24.5586V3.53125C5 2.14925 6.12391 1.02344 7.50391 1.02344ZM17 1.80859C18.528 3.32659 21.576 6.35744 23.25 8.02344H19.4766C18.1106 8.02344 17 6.91287 17 5.54688V1.80859ZM22.5391 19.9766C25.5731 19.9766 28.0391 22.4426 28.0391 25.4766C28.0391 28.5106 25.5731 30.9766 22.5391 30.9766C19.5051 30.9766 17.0391 28.5106 17.0391 25.4766C17.0391 22.4426 19.5051 19.9766 22.5391 19.9766ZM22.0391 22.8086V26.7422L20.4727 25.2695L19.7891 26L22.5352 28.5781L25.2148 25.9961L24.5195 25.2773L23.0391 26.707V22.8086H22.0391Z" fill="#214E34"/>
<path d="M8.23438 44V43.1445L12.1953 38.5977C11.7461 38.6211 11.3496 38.6328 11.0059 38.6328H8.46875V37.7773H13.5547V38.4746L10.1855 42.4238L9.53516 43.1445C10.0078 43.1094 10.4512 43.0918 10.8652 43.0918H13.7422V44H8.23438ZM14.7969 36.623V35.4102H15.8516V36.623H14.7969ZM14.7969 44V37.7773H15.8516V44H14.7969ZM17.4629 46.3848V37.7773H18.4238V38.5859C18.6504 38.2695 18.9062 38.0332 19.1914 37.877C19.4766 37.7168 19.8223 37.6367 20.2285 37.6367C20.7598 37.6367 21.2285 37.7734 21.6348 38.0469C22.041 38.3203 22.3477 38.707 22.5547 39.207C22.7617 39.7031 22.8652 40.248 22.8652 40.8418C22.8652 41.4785 22.75 42.0527 22.5195 42.5645C22.293 43.0723 21.9609 43.4629 21.5234 43.7363C21.0898 44.0059 20.6328 44.1406 20.1523 44.1406C19.8008 44.1406 19.4844 44.0664 19.2031 43.918C18.9258 43.7695 18.6973 43.582 18.5176 43.3555V46.3848H17.4629ZM18.418 40.9238C18.418 41.7246 18.5801 42.3164 18.9043 42.6992C19.2285 43.082 19.6211 43.2734 20.082 43.2734C20.5508 43.2734 20.9512 43.0762 21.2832 42.6816C21.6191 42.2832 21.7871 41.668 21.7871 40.8359C21.7871 40.043 21.623 39.4492 21.2949 39.0547C20.9707 38.6602 20.582 38.4629 20.1289 38.4629C19.6797 38.4629 19.2812 38.6738 18.9336 39.0957C18.5898 39.5137 18.418 40.123 18.418 40.9238Z" fill="#214E34"/>
</svg>
