<svg width="32" height="48" viewBox="0 0 32 48" fill="none" xmlns="http://www.w3.org/2000/svg">
<path d="M7.50391 0.0234375C5.56991 0.0234375 4 1.59725 4 3.53125V24.5625C4 26.4965 5.56991 28.0664 7.50391 28.0664H16.5391C16.5531 28.0664 16.5621 28.0528 16.5781 28.0508C17.5781 30.3568 19.8711 31.9766 22.5391 31.9766C26.1231 31.9766 29.0391 29.0606 29.0391 25.4766C29.0391 22.7646 27.366 20.4428 25 19.4688V8.56643C25 8.55043 24.9824 8.53756 24.9804 8.51956C24.9784 8.38956 24.9494 8.26199 24.8554 8.16799L16.8555 0.167969C16.7515 0.0659688 16.6088 0.038875 16.4688 0.046875C16.4487 0.044875 16.4341 0.0234375 16.4141 0.0234375H7.50391H7.50391ZM7.50391 1.02344H16V5.54688C16 7.46488 17.5606 9.02344 19.4766 9.02344H24V19.1562C23.528 19.0462 23.0431 18.9766 22.5391 18.9766C18.9551 18.9766 16.0391 21.8926 16.0391 25.4766C16.0391 26.0286 16.1278 26.5544 16.2578 27.0664H7.50391C6.12391 27.0664 5 25.9386 5 24.5586V3.53125C5 2.14925 6.12391 1.02344 7.50391 1.02344ZM17 1.80859C18.528 3.32659 21.576 6.35744 23.25 8.02344H19.4766C18.1106 8.02344 17 6.91287 17 5.54688V1.80859ZM22.5391 19.9766C25.5731 19.9766 28.0391 22.4426 28.0391 25.4766C28.0391 28.5106 25.5731 30.9766 22.5391 30.9766C19.5051 30.9766 17.0391 28.5106 17.0391 25.4766C17.0391 22.4426 19.5051 19.9766 22.5391 19.9766ZM22.0391 22.8086V26.7422L20.4727 25.2695L19.7891 26L22.5352 28.5781L25.2148 25.9961L24.5195 25.2773L23.0391 26.707V22.8086H22.0391Z" fill="#214E34"/>
<path d="M8.29102 46.3848V37.7773H9.25195V38.5859C9.47852 38.2695 9.73438 38.0332 10.0195 37.877C10.3047 37.7168 10.6504 37.6367 11.0566 37.6367C11.5879 37.6367 12.0566 37.7734 12.4629 38.0469C12.8691 38.3203 13.1758 38.707 13.3828 39.207C13.5898 39.7031 13.6934 40.248 13.6934 40.8418C13.6934 41.4785 13.5781 42.0527 13.3477 42.5645C13.1211 43.0723 12.7891 43.4629 12.3516 43.7363C11.918 44.0059 11.4609 44.1406 10.9805 44.1406C10.6289 44.1406 10.3125 44.0664 10.0312 43.918C9.75391 43.7695 9.52539 43.582 9.3457 43.3555V46.3848H8.29102ZM9.24609 40.9238C9.24609 41.7246 9.4082 42.3164 9.73242 42.6992C10.0566 43.082 10.4492 43.2734 10.9102 43.2734C11.3789 43.2734 11.7793 43.0762 12.1113 42.6816C12.4473 42.2832 12.6152 41.668 12.6152 40.8359C12.6152 40.043 12.4512 39.4492 12.123 39.0547C11.7988 38.6602 11.4102 38.4629 10.957 38.4629C10.5078 38.4629 10.1094 38.6738 9.76172 39.0957C9.41797 39.5137 9.24609 40.123 9.24609 40.9238ZM19.0078 44V43.2148C18.6133 43.832 18.0332 44.1406 17.2676 44.1406C16.7715 44.1406 16.3145 44.0039 15.8965 43.7305C15.4824 43.457 15.1602 43.0762 14.9297 42.5879C14.7031 42.0957 14.5898 41.5312 14.5898 40.8945C14.5898 40.2734 14.6934 39.7109 14.9004 39.207C15.1074 38.6992 15.418 38.3105 15.832 38.041C16.2461 37.7715 16.709 37.6367 17.2207 37.6367C17.5957 37.6367 17.9297 37.7168 18.2227 37.877C18.5156 38.0332 18.7539 38.2383 18.9375 38.4922V35.4102H19.9863V44H19.0078ZM15.6738 40.8945C15.6738 41.6914 15.8418 42.2871 16.1777 42.6816C16.5137 43.0762 16.9102 43.2734 17.3672 43.2734C17.8281 43.2734 18.2188 43.0859 18.5391 42.7109C18.8633 42.332 19.0254 41.7559 19.0254 40.9824C19.0254 40.1309 18.8613 39.5059 18.5332 39.1074C18.2051 38.709 17.8008 38.5098 17.3203 38.5098C16.8516 38.5098 16.459 38.7012 16.1426 39.084C15.8301 39.4668 15.6738 40.0703 15.6738 40.8945ZM21.9023 44V38.5977H20.9707V37.7773H21.9023V37.1152C21.9023 36.6973 21.9395 36.3867 22.0137 36.1836C22.1152 35.9102 22.293 35.6895 22.5469 35.5215C22.8047 35.3496 23.1641 35.2637 23.625 35.2637C23.9219 35.2637 24.25 35.2988 24.6094 35.3691L24.4512 36.2891C24.2324 36.25 24.0254 36.2305 23.8301 36.2305C23.5098 36.2305 23.2832 36.2988 23.1504 36.4355C23.0176 36.5723 22.9512 36.8281 22.9512 37.2031V37.7773H24.1641V38.5977H22.9512V44H21.9023Z" fill="#214E34"/>
</svg>
