<svg width="32" height="48" viewBox="0 0 32 48" fill="none" xmlns="http://www.w3.org/2000/svg">
<path d="M7.50391 0.0234375C5.56991 0.0234375 4 1.59725 4 3.53125V24.5625C4 26.4965 5.56991 28.0664 7.50391 28.0664H16.5391C16.5531 28.0664 16.5621 28.0528 16.5781 28.0508C17.5781 30.3568 19.8711 31.9766 22.5391 31.9766C26.1231 31.9766 29.0391 29.0606 29.0391 25.4766C29.0391 22.7646 27.366 20.4428 25 19.4688V8.56643C25 8.55043 24.9824 8.53756 24.9804 8.51956C24.9784 8.38956 24.9494 8.26199 24.8554 8.16799L16.8555 0.167969C16.7515 0.0659688 16.6088 0.038875 16.4688 0.046875C16.4487 0.044875 16.4341 0.0234375 16.4141 0.0234375H7.50391H7.50391ZM7.50391 1.02344H16V5.54688C16 7.46488 17.5606 9.02344 19.4766 9.02344H24V19.1562C23.528 19.0462 23.0431 18.9766 22.5391 18.9766C18.9551 18.9766 16.0391 21.8926 16.0391 25.4766C16.0391 26.0286 16.1278 26.5544 16.2578 27.0664H7.50391C6.12391 27.0664 5 25.9386 5 24.5586V3.53125C5 2.14925 6.12391 1.02344 7.50391 1.02344ZM17 1.80859C18.528 3.32659 21.576 6.35744 23.25 8.02344H19.4766C18.1106 8.02344 17 6.91287 17 5.54688V1.80859ZM22.5391 19.9766C25.5731 19.9766 28.0391 22.4426 28.0391 25.4766C28.0391 28.5106 25.5731 30.9766 22.5391 30.9766C19.5051 30.9766 17.0391 28.5106 17.0391 25.4766C17.0391 22.4426 19.5051 19.9766 22.5391 19.9766ZM22.0391 22.8086V26.7422L20.4727 25.2695L19.7891 26L22.5352 28.5781L25.2148 25.9961L24.5195 25.2773L23.0391 26.707V22.8086H22.0391Z" fill="#214E34"/>
<path d="M7.82812 44V43.2148C7.43359 43.832 6.85352 44.1406 6.08789 44.1406C5.5918 44.1406 5.13477 44.0039 4.7168 43.7305C4.30273 43.457 3.98047 43.0762 3.75 42.5879C3.52344 42.0957 3.41016 41.5312 3.41016 40.8945C3.41016 40.2734 3.51367 39.7109 3.7207 39.207C3.92773 38.6992 4.23828 38.3105 4.65234 38.041C5.06641 37.7715 5.5293 37.6367 6.04102 37.6367C6.41602 37.6367 6.75 37.7168 7.04297 37.877C7.33594 38.0332 7.57422 38.2383 7.75781 38.4922V35.4102H8.80664V44H7.82812ZM4.49414 40.8945C4.49414 41.6914 4.66211 42.2871 4.99805 42.6816C5.33398 43.0762 5.73047 43.2734 6.1875 43.2734C6.64844 43.2734 7.03906 43.0859 7.35938 42.7109C7.68359 42.332 7.8457 41.7559 7.8457 40.9824C7.8457 40.1309 7.68164 39.5059 7.35352 39.1074C7.02539 38.709 6.62109 38.5098 6.14062 38.5098C5.67188 38.5098 5.2793 38.7012 4.96289 39.084C4.65039 39.4668 4.49414 40.0703 4.49414 40.8945ZM10.0781 40.8887C10.0781 39.7363 10.3984 38.8828 11.0391 38.3281C11.5742 37.8672 12.2266 37.6367 12.9961 37.6367C13.8516 37.6367 14.5508 37.918 15.0938 38.4805C15.6367 39.0391 15.9082 39.8125 15.9082 40.8008C15.9082 41.6016 15.7871 42.2324 15.5449 42.6934C15.3066 43.1504 14.957 43.5059 14.4961 43.7598C14.0391 44.0137 13.5391 44.1406 12.9961 44.1406C12.125 44.1406 11.4199 43.8613 10.8809 43.3027C10.3457 42.7441 10.0781 41.9395 10.0781 40.8887ZM11.1621 40.8887C11.1621 41.6855 11.3359 42.2832 11.6836 42.6816C12.0312 43.0762 12.4688 43.2734 12.9961 43.2734C13.5195 43.2734 13.9551 43.0742 14.3027 42.6758C14.6504 42.2773 14.8242 41.6699 14.8242 40.8535C14.8242 40.084 14.6484 39.502 14.2969 39.1074C13.9492 38.709 13.5156 38.5098 12.9961 38.5098C12.4688 38.5098 12.0312 38.707 11.6836 39.1016C11.3359 39.4961 11.1621 40.0918 11.1621 40.8887ZM21.2109 41.7207L22.248 41.8555C22.1348 42.5703 21.8438 43.1309 21.375 43.5371C20.9102 43.9395 20.3379 44.1406 19.6582 44.1406C18.8066 44.1406 18.1211 43.8633 17.6016 43.3086C17.0859 42.75 16.8281 41.9512 16.8281 40.9121C16.8281 40.2402 16.9395 39.6523 17.1621 39.1484C17.3848 38.6445 17.7227 38.2676 18.1758 38.0176C18.6328 37.7637 19.1289 37.6367 19.6641 37.6367C20.3398 37.6367 20.8926 37.8086 21.3223 38.1523C21.752 38.4922 22.0273 38.9766 22.1484 39.6055L21.123 39.7637C21.0254 39.3457 20.8516 39.0312 20.6016 38.8203C20.3555 38.6094 20.0566 38.5039 19.7051 38.5039C19.1738 38.5039 18.7422 38.6953 18.4102 39.0781C18.0781 39.457 17.9121 40.0586 17.9121 40.8828C17.9121 41.7188 18.0723 42.3262 18.3926 42.7051C18.7129 43.084 19.1309 43.2734 19.6465 43.2734C20.0605 43.2734 20.4062 43.1465 20.6836 42.8926C20.9609 42.6387 21.1367 42.248 21.2109 41.7207ZM22.4473 44L24.7207 40.7656L22.6172 37.7773H23.9355L24.8906 39.2363C25.0703 39.5137 25.2148 39.7461 25.3242 39.9336C25.4961 39.6758 25.6543 39.4473 25.7988 39.248L26.8477 37.7773H28.1074L25.957 40.707L28.2715 44H26.9766L25.6992 42.0664L25.3594 41.5449L23.7246 44H22.4473Z" fill="#214E34"/>
</svg>
