<svg width="16" height="16" viewBox="0 0 16 16" fill="none" xmlns="http://www.w3.org/2000/svg">
<path d="M11.5607 3.64065C11.4024 3.64065 11.2478 3.68757 11.1162 3.77548C10.9846 3.86338 10.8821 3.98832 10.8215 4.1345C10.761 4.28069 10.7452 4.44154 10.776 4.59672C10.8069 4.75191 10.8831 4.89445 10.995 5.00634C11.1068 5.11822 11.2494 5.19441 11.4046 5.22528C11.5598 5.25615 11.7206 5.2403 11.8668 5.17975C12.013 5.1192 12.1379 5.01667 12.2258 4.88511C12.3137 4.75355 12.3607 4.59888 12.3607 4.44065C12.3607 4.22848 12.2764 4.02499 12.1263 3.87497C11.9763 3.72494 11.7728 3.64065 11.5607 3.64065ZM14.6273 5.25398C14.6144 4.70085 14.5108 4.15359 14.3207 3.63398C14.1511 3.18941 13.8873 2.78684 13.5473 2.45398C13.2172 2.11227 12.8137 1.8501 12.3673 1.68732C11.8491 1.49142 11.3012 1.38546 10.7473 1.37398C10.0407 1.33398 9.81398 1.33398 8.00065 1.33398C6.18732 1.33398 5.96065 1.33398 5.25398 1.37398C4.70009 1.38546 4.15221 1.49142 3.63398 1.68732C3.18844 1.85175 2.78527 2.11369 2.45398 2.45398C2.11227 2.7841 1.8501 3.18761 1.68732 3.63398C1.49142 4.15221 1.38546 4.70009 1.37398 5.25398C1.33398 5.96065 1.33398 6.18732 1.33398 8.00065C1.33398 9.81398 1.33398 10.0407 1.37398 10.7473C1.38546 11.3012 1.49142 11.8491 1.68732 12.3673C1.8501 12.8137 2.11227 13.2172 2.45398 13.5473C2.78527 13.8876 3.18844 14.1496 3.63398 14.314C4.15221 14.5099 4.70009 14.6158 5.25398 14.6273C5.96065 14.6673 6.18732 14.6673 8.00065 14.6673C9.81398 14.6673 10.0407 14.6673 10.7473 14.6273C11.3012 14.6158 11.8491 14.5099 12.3673 14.314C12.8137 14.1512 13.2172 13.889 13.5473 13.5473C13.8888 13.2157 14.1529 12.8128 14.3207 12.3673C14.5108 11.8477 14.6144 11.3005 14.6273 10.7473C14.6273 10.0407 14.6673 9.81398 14.6673 8.00065C14.6673 6.18732 14.6673 5.96065 14.6273 5.25398ZM13.4273 10.6673C13.4225 11.0905 13.3458 11.5098 13.2007 11.9073C13.0942 12.1974 12.9232 12.4596 12.7007 12.674C12.4844 12.8943 12.2228 13.0649 11.934 13.174C11.5365 13.3192 11.1172 13.3958 10.694 13.4007C10.0273 13.434 9.78065 13.4407 8.02732 13.4407C6.27398 13.4407 6.02732 13.4407 5.36065 13.4007C4.92124 13.4089 4.48371 13.3412 4.06732 13.2007C3.79117 13.086 3.54156 12.9158 3.33398 12.7007C3.11271 12.4865 2.94388 12.2241 2.84065 11.934C2.67789 11.5308 2.58761 11.1019 2.57398 10.6673C2.57398 10.0007 2.53398 9.75398 2.53398 8.00065C2.53398 6.24732 2.53398 6.00065 2.57398 5.33398C2.57697 4.90135 2.65595 4.47261 2.80732 4.06732C2.92468 3.78593 3.10483 3.53509 3.33398 3.33398C3.53653 3.10476 3.78684 2.92271 4.06732 2.80065C4.47369 2.65401 4.90198 2.57737 5.33398 2.57398C6.00065 2.57398 6.24732 2.53398 8.00065 2.53398C9.75398 2.53398 10.0007 2.53398 10.6673 2.57398C11.0905 2.57884 11.5098 2.65548 11.9073 2.80065C12.2103 2.91309 12.4822 3.09588 12.7007 3.33398C12.9191 3.53877 13.0898 3.78914 13.2007 4.06732C13.3488 4.47327 13.4255 4.90184 13.4273 5.33398C13.4607 6.00065 13.4673 6.24732 13.4673 8.00065C13.4673 9.75398 13.4607 10.0007 13.4273 10.6673ZM8.00065 4.58065C7.32452 4.58197 6.66396 4.78367 6.10242 5.16026C5.54088 5.53686 5.10357 6.07145 4.84574 6.69649C4.58791 7.32153 4.52113 8.00896 4.65385 8.67194C4.78656 9.33491 5.11281 9.94368 5.59137 10.4213C6.06993 10.8989 6.67933 11.224 7.34256 11.3554C8.00579 11.4868 8.6931 11.4187 9.31763 11.1597C9.94217 10.9006 10.4759 10.4623 10.8514 9.90001C11.2269 9.33774 11.4273 8.67678 11.4273 8.00065C11.4282 7.55072 11.3401 7.10506 11.1681 6.68929C10.9962 6.27352 10.7437 5.89586 10.4252 5.57802C10.1068 5.26018 9.72862 5.00844 9.31252 4.83727C8.89642 4.6661 8.45058 4.57889 8.00065 4.58065ZM8.00065 10.2207C7.56158 10.2207 7.13236 10.0905 6.76729 9.84651C6.40221 9.60258 6.11767 9.25586 5.94964 8.85021C5.78161 8.44456 5.73765 7.99819 5.82331 7.56755C5.90897 7.13691 6.1204 6.74135 6.43087 6.43087C6.74135 6.1204 7.13691 5.90897 7.56755 5.82331C7.99819 5.73765 8.44456 5.78161 8.85021 5.94964C9.25586 6.11767 9.60258 6.40221 9.84651 6.76729C10.0905 7.13236 10.2207 7.56158 10.2207 8.00065C10.2207 8.29219 10.1632 8.58087 10.0517 8.85021C9.9401 9.11955 9.77657 9.36428 9.57043 9.57043C9.36428 9.77657 9.11955 9.9401 8.85021 10.0517C8.58087 10.1632 8.29219 10.2207 8.00065 10.2207Z" fill="#214E34"/>
</svg>
