<svg width="16" height="10" viewBox="0 0 16 10" fill="none" xmlns="http://www.w3.org/2000/svg">
<path d="M7.99978 0C4.66644 0 1.81978 2.07333 0.666443 5C1.81978 7.92667 4.66644 10 7.99978 10C11.3364 10 14.1798 7.92667 15.3331 5C14.1798 2.07333 11.3364 0 7.99978 0ZM7.99978 8.33333C6.15978 8.33333 4.66644 6.84 4.66644 5C4.66644 3.16 6.15978 1.66667 7.99978 1.66667C9.83978 1.66667 11.3331 3.16 11.3331 5C11.3331 6.84 9.83978 8.33333 7.99978 8.33333ZM7.99978 3C6.89644 3 5.99978 3.89667 5.99978 5C5.99978 6.10333 6.89644 7 7.99978 7C9.10311 7 9.99978 6.10333 9.99978 5C9.99978 3.89667 9.10311 3 7.99978 3Z" fill="#A29C9B"/>
</svg>
