<svg width="14" height="14" viewBox="0 0 14 14" fill="none" xmlns="http://www.w3.org/2000/svg">
<path d="M7.00065 0.333984C3.32065 0.333984 0.333984 3.32065 0.333984 7.00065C0.333984 10.6807 3.32065 13.6673 7.00065 13.6673H10.334V12.334H7.00065C4.10732 12.334 1.66732 9.89398 1.66732 7.00065C1.66732 4.10732 4.10732 1.66732 7.00065 1.66732C9.89398 1.66732 12.334 4.10732 12.334 7.00065V7.95398C12.334 8.48065 11.8607 9.00065 11.334 9.00065C10.8073 9.00065 10.334 8.48065 10.334 7.95398V7.00065C10.334 5.16065 8.84065 3.66732 7.00065 3.66732C5.16065 3.66732 3.66732 5.16065 3.66732 7.00065C3.66732 8.84065 5.16065 10.334 7.00065 10.334C7.92065 10.334 8.76065 9.96065 9.36065 9.35398C9.79398 9.94732 10.5407 10.334 11.334 10.334C12.6473 10.334 13.6673 9.26732 13.6673 7.95398V7.00065C13.6673 3.32065 10.6807 0.333984 7.00065 0.333984ZM7.00065 9.00065C5.89398 9.00065 5.00065 8.10732 5.00065 7.00065C5.00065 5.89398 5.89398 5.00065 7.00065 5.00065C8.10732 5.00065 9.00065 5.89398 9.00065 7.00065C9.00065 8.10732 8.10732 9.00065 7.00065 9.00065Z" fill="#011627"/>
</svg>
